<?xml version="1.0" standalone="no"?><!DOCTYPE svg PUBLIC "-//W3C//DTD SVG 1.1//EN" "http://www.w3.org/Graphics/SVG/1.1/DTD/svg11.dtd"><svg t="1691679157508" class="icon" viewBox="0 0 1024 1024" version="1.1" xmlns="http://www.w3.org/2000/svg" p-id="1860" xmlns:xlink="http://www.w3.org/1999/xlink" width="200" height="200"><path d="M482.647032 943.044978H175.182365c-55.56694 0-100.659891-43.595953-100.659891-97.266895V172.587813c0-53.671942 45.092951-97.267895 100.659891-97.267895v0.1h660.719284c55.46794 0 100.559891 43.694953 100.559891 97.266895v391.963575h74.521919V172.686813c0-94.772897-78.611915-171.888814-175.17981-171.888814H175.181365C78.61247 0.897999 0.000555 77.913916 0.000555 172.687813v673.18927c0 94.673897 78.512915 171.789814 175.18181 171.789814h307.464667v-74.621919z m0 0" p-id="1861" fill="#1296db"></path><path d="M1008.489462 677.280266L473.270042 358.841611c-19.653979-11.671987-32.322965-2.892997-28.13297 19.553979l113.827877 616.027332c4.189995 22.445976 18.25598 25.537972 31.324966 6.882993 0 0 72.725921-104.249887 132.382857-167.898818l120.910869 180.069804c7.382992 10.973988 22.346976 13.866985 33.220964 6.284994l56.963938-39.405958c10.973988-7.581992 13.866985-22.745975 6.384993-33.819963l-120.711869-179.769805c76.516917-31.723966 184.5598-58.459937 184.5598-58.459937 22.045976-5.486994 24.041974-19.452979 4.487995-31.025966z" p-id="1862" fill="#1296db"></path></svg>